<svg width="0" height="0" class="hidden">
  <symbol fill="none" xmlns="http://www.w3.org/2000/svg" viewBox="0 0 25 18" id="cloud-fill">
    <path d="M20.605 8.05c0-.435.145-.87.145-1.45 0-3.19-2.61-5.8-5.8-5.8-2.32 0-4.205 1.305-5.22 3.19-.29-.145-.87-.29-1.305-.29A3.59 3.59 0 004.8 7.325c0 .29 0 .58.145.725C2.335 8.485.45 10.515.45 13.125c0 2.755 2.32 5.075 5.075 5.075h14.5c2.755 0 5.075-2.32 5.075-5.075 0-2.61-1.885-4.785-4.495-5.075z" fill="#fff"></path>
  </symbol>
  <symbol fill="none" xmlns="http://www.w3.org/2000/svg" viewBox="0 0 32 32" id="appstore">
    <path d="M16 2C8.26625 2 2 8.26625 2 16C2 23.7337 8.26625 30 16 30C23.7337 30 30 23.7337 30 16C30 8.26625 23.7337 2 16 2ZM10.6875 22.1181C10.6016 22.2647 10.4786 22.386 10.3309 22.4699C10.1833 22.5538 10.0161 22.5974 9.84625 22.5963C9.67314 22.5978 9.50303 22.551 9.355 22.4613C9.24478 22.3974 9.14826 22.3124 9.07098 22.2111C8.9937 22.1098 8.93718 21.9943 8.90466 21.8711C8.87214 21.748 8.86426 21.6196 8.88148 21.4934C8.8987 21.3672 8.94068 21.2456 9.005 21.1356L9.96062 19.5469C10.0089 19.4649 10.0778 19.3969 10.1605 19.3498C10.2431 19.3026 10.3367 19.2779 10.4319 19.2781H10.5731C11.2662 19.2781 11.7513 19.695 11.8925 20.0987L10.6875 22.1181ZM18.7781 18.9931L12.52 19H8.36063C8.22976 19.0006 8.10015 18.9745 7.97965 18.9235C7.85915 18.8724 7.75027 18.7974 7.65963 18.7031C7.56898 18.6087 7.49845 18.4968 7.45232 18.3744C7.40618 18.2519 7.38541 18.1214 7.39125 17.9906C7.41125 17.4656 7.86937 17.0681 8.39125 17.0681H11.4062L14.9806 10.9838L13.8231 9.01188C13.5625 8.5625 13.6781 7.97 14.125 7.6875C14.2352 7.61625 14.3586 7.56801 14.4879 7.54569C14.6172 7.52337 14.7497 7.52742 14.8773 7.5576C15.005 7.58779 15.1253 7.64348 15.2309 7.72133C15.3365 7.79918 15.4253 7.89759 15.4919 8.01062L16.1106 9.0675H16.1175L16.7369 8.01062C16.8036 7.89817 16.8922 7.8003 16.9975 7.72284C17.1028 7.64538 17.2227 7.58991 17.3499 7.55976C17.4771 7.52961 17.609 7.52538 17.7379 7.54732C17.8668 7.56927 17.9899 7.61694 18.1 7.6875C18.5444 7.97 18.6588 8.5625 18.3962 9.01375L17.2388 10.9856L16.1138 12.9038L13.6706 17.07V17.0769H17.2712C17.7225 17.0769 18.2881 17.3194 18.5169 17.7094L18.5369 17.75C18.7388 18.0931 18.8531 18.3288 18.8531 18.6719C18.8498 18.7833 18.825 18.893 18.78 18.995L18.7781 18.9931ZM23.6375 19H21.9431V19.0069L23.1819 21.1138C23.3151 21.3356 23.3559 21.601 23.2955 21.8526C23.235 22.1043 23.0782 22.3222 22.8587 22.4594C22.7066 22.5521 22.5319 22.6012 22.3538 22.6012C22.1844 22.6012 22.0179 22.5573 21.8705 22.4738C21.723 22.3904 21.5997 22.2702 21.5125 22.125L19.6819 19.0088L18.5444 17.0713L17.0769 14.5625C16.8643 14.2043 16.7488 13.7969 16.7417 13.3804C16.7345 12.9639 16.8361 12.5528 17.0362 12.1875C17.3262 11.6756 17.5481 11.5413 17.5481 11.5413L20.8125 17.0625H23.6194C24.1444 17.0625 24.595 17.4663 24.6194 17.9844C24.6244 18.1161 24.6028 18.2475 24.5558 18.3707C24.5088 18.4938 24.4374 18.6062 24.3458 18.7011C24.2543 18.7959 24.1445 18.8713 24.0231 18.9227C23.9017 18.974 23.7712 19.0003 23.6394 19H23.6375Z" fill="white"/>
  </symbol>
  <symbol fill="none" xmlns="http://www.w3.org/2000/svg" viewBox="0 0 80 80" id="cloud">
    <path d="M48.75 55.18h-5.79V36.25a.627.627 0 00-.624-.625h-4.688a.627.627 0 00-.625.625v18.93H31.25a.623.623 0 00-.492 1.008l8.75 11.07a.627.627 0 00.984 0l8.75-11.07a.623.623 0 00-.492-1.008z" fill="#ED4C5C"></path>
    <path d="M63.39 28.648C59.813 19.211 50.696 12.5 40.017 12.5c-10.68 0-19.797 6.703-23.375 16.14C9.945 30.399 5 36.5 5 43.75c0 8.633 6.992 15.625 15.617 15.625h3.133a.627.627 0 00.625-.625v-4.688a.627.627 0 00-.625-.624h-3.133a9.63 9.63 0 01-6.953-2.946 9.683 9.683 0 01-2.726-7.078c.07-2.062.773-4 2.046-5.633a9.79 9.79 0 015.164-3.414l2.961-.773 1.086-2.86a18.788 18.788 0 012.79-4.953 19.19 19.19 0 014.093-3.898 18.916 18.916 0 0110.938-3.453c3.945 0 7.726 1.195 10.937 3.453a19.201 19.201 0 014.094 3.898 18.909 18.909 0 012.789 4.953l1.078 2.852 2.953.781a9.732 9.732 0 017.196 9.383 9.633 9.633 0 01-2.836 6.852 9.617 9.617 0 01-6.844 2.836H56.25a.627.627 0 00-.625.624v4.688c0 .344.281.625.625.625h3.133C68.008 59.375 75 52.383 75 43.75c0-7.242-4.93-13.336-11.61-15.102z" fill="#ED4C5C"></path>
  </symbol>
  <symbol fill="none" xmlns="http://www.w3.org/2000/svg" viewBox="0 0 70 70" id="csv">
    <path d="M23.723 35.67c0-1.454-1.01-2.323-2.791-2.323-.727 0-1.219.07-1.477.14v4.67c.306.068.681.093 1.196.093 1.9 0 3.072-.962 3.072-2.58zm11.03-2.277c-.797 0-1.314.07-1.62.142V43.88c.306.07.798.07 1.243.07 3.237.024 5.35-1.76 5.35-5.535.024-3.285-1.9-5.022-4.973-5.022z" fill="#ED4C5C"></path>
    <path d="M55.886 27.316H54.59v-6.258a.858.858 0 00-.011-.119 1.043 1.043 0 00-.251-.686L43.915 8.362l-.008-.008a1.083 1.083 0 00-.488-.304l-.057-.02a.998.998 0 00-.243-.03h-25.59a2.12 2.12 0 00-2.118 2.118v17.197h-1.297a3.026 3.026 0 00-3.026 3.027v15.74a3.028 3.028 0 003.026 3.026h1.297v10.776a2.12 2.12 0 002.118 2.118H52.47a2.12 2.12 0 002.118-2.118V49.108h1.297a3.027 3.027 0 003.026-3.026v-15.74a3.027 3.027 0 00-3.026-3.026zM17.53 10.117h24.53v10.835c0 .585.474 1.058 1.06 1.058h9.354v5.305H17.53V10.117zm25.997 28.178c0 3.026-1.102 5.115-2.63 6.405-1.665 1.383-4.197 2.041-7.294 2.041-1.854 0-3.166-.119-4.06-.233V30.977c1.314-.21 3.027-.327 4.834-.327 3.002 0 4.95.54 6.474 1.689 1.643 1.219 2.676 3.166 2.676 5.957zM15.91 46.58V30.977c1.102-.188 2.652-.327 4.832-.327 2.206 0 3.779.423 4.833 1.266 1.008.798 1.687 2.112 1.687 3.66 0 1.55-.515 2.862-1.454 3.753-1.22 1.15-3.026 1.666-5.138 1.666a8.97 8.97 0 01-1.219-.07v5.654h-3.54zm36.561 12.73H17.53V49.108h34.94V59.31zM55.54 33.7h-6.078v3.613h5.678v2.91h-5.678v6.356h-3.587V30.767h9.665v2.932z" fill="#ED4C5C"></path>
  </symbol>
  <symbol fill="none" xmlns="http://www.w3.org/2000/svg" viewBox="0 0 32 32" id="pdf">
    <path d="M3 3.718v24.563a.27.27 0 00.46.192L16.25 16 3.46 3.526a.27.27 0 00-.46.192zm18.613 7.157L5.576 2.04l-.01-.006c-.276-.15-.538.224-.312.442l12.57 12.02 3.788-3.621zM5.255 29.524c-.228.218.035.592.312.442l.01-.006 16.035-8.835-3.788-3.622L5.255 29.524zm22.831-15.087l-4.478-2.466L19.398 16l4.21 4.027 4.478-2.465c1.218-.673 1.218-2.451 0-3.125z" fill="#fff"></path>
  </symbol>
  <symbol fill="none" xmlns="http://www.w3.org/2000/svg" viewBox="0 0 32 32" id="playstore">
    <path d="M3 3.71815V28.2807C3.00016 28.3339 3.01606 28.386 3.04569 28.4303C3.07532 28.4746 3.11737 28.5091 3.16656 28.5296C3.21575 28.5501 3.2699 28.5556 3.32222 28.5455C3.37453 28.5353 3.42268 28.5099 3.46062 28.4725L16.25 16L3.46062 3.52628C3.42268 3.48886 3.37453 3.46349 3.32222 3.45333C3.2699 3.44317 3.21575 3.44868 3.16656 3.46917C3.11737 3.48966 3.07532 3.52422 3.04569 3.56852C3.01606 3.61281 3.00016 3.66486 3 3.71815Z" fill="white"/>
    <path d="M21.6125 10.8749L5.57627 2.03994L5.56627 2.03432C5.29002 1.88432 5.02752 2.25807 5.25377 2.47557L17.8244 14.4956L21.6125 10.8749Z" fill="white"/>
    <path d="M5.25499 29.5244C5.02749 29.7419 5.28999 30.1157 5.56749 29.9657L5.57749 29.96L21.6125 21.125L17.8244 17.5032L5.25499 29.5244Z" fill="white"/>
    <path d="M28.0863 14.4374L23.6081 11.9712L19.3975 15.9999L23.6081 20.0268L28.0863 17.5624C29.3044 16.8893 29.3044 15.1106 28.0863 14.4374Z" fill="white"/>
  </symbol>
  <symbol fill="none" xmlns="http://www.w3.org/2000/svg" viewBox="0 0 47 54" id="secure">
    <path d="M44.026 18.96H42.75v-6.142a.842.842 0 00-.011-.116 1.015 1.015 0 00-.248-.672L32.26.357l-.008-.008a1.063 1.063 0 00-.206-.173l-.068-.04a1.032 1.032 0 00-.205-.087L31.718.03a1.015 1.015 0 00-.24-.03H6.33a2.082 2.082 0 00-2.081 2.078v16.88H2.974A2.972 2.972 0 000 21.928v15.449a2.974 2.974 0 002.974 2.97H4.25v10.575A2.08 2.08 0 006.33 53h34.34a2.083 2.083 0 002.081-2.078V40.347h1.275A2.973 2.973 0 0047 37.377V21.928a2.971 2.971 0 00-2.974-2.968zM6.33 2.078h24.107v10.635a1.04 1.04 0 001.042 1.038h9.193v5.207H6.33V2.078zm15.57 28.48c-2.527-.902-4.194-2.299-4.194-4.505 0-2.589 2.188-4.547 5.75-4.547 1.738 0 2.977.338 3.88.764l-.768 2.747a7.14 7.14 0 00-3.156-.72c-1.49 0-2.211.697-2.211 1.463 0 .97.833 1.395 2.818 2.139 2.684.991 3.923 2.386 3.923 4.527 0 2.546-1.938 4.707-6.11 4.707-1.737 0-3.45-.474-4.307-.947l.7-2.814a8.682 8.682 0 003.809.946c1.579 0 2.414-.655 2.414-1.645 0-.946-.72-1.485-2.548-2.116zM3.991 29.52c0-5.158 3.698-8.017 8.297-8.017 1.782 0 3.134.358 3.743.653l-.722 2.724a7.248 7.248 0 00-2.886-.563c-2.705 0-4.824 1.643-4.824 5.02 0 3.018 1.803 4.933 4.847 4.933 1.06 0 2.188-.2 2.885-.495l.499 2.701c-.61.291-2.053.654-3.879.654-5.254.002-7.96-3.286-7.96-7.61zM40.67 50.362H6.33V40.349h34.34v10.013zm-2.779-13.455h-4.013l-4.87-15.178h3.766l1.848 6.42c.517 1.823.99 3.535 1.352 5.426h.068a67.248 67.248 0 011.374-5.359l1.94-6.485h3.65l-5.115 15.176z" fill="#ED4C5C"></path>
  </symbol>
  <symbol fill="none" xmlns="http://www.w3.org/2000/svg" viewBox="0 0 24 24" id="windows">
    <path d="M0 3.449L9.75 2.1v9.451H0V3.449zm10.949-1.5L24 0v11.4H10.949V1.949zM0 12.6h9.75v9.451L0 20.699V12.6zm10.949 0H24V24l-12.9-1.801" fill="#fff"></path>
  </symbol>
</svg>